<svg width="24" height="24" viewBox="0 0 24 24" fill="none" xmlns="http://www.w3.org/2000/svg">
<g clip-path="url(#clip0_5825_99559)">
<path d="M11.9999 15.2719H0.45459C0.670215 16.0312 0.956152 16.7625 1.3124 17.4515H11.9999H22.6874C23.0437 16.7578 23.3296 16.0312 23.5452 15.2719H11.9999Z" fill="white"/>
<path d="M12 17.4562H1.3125C1.71094 18.2391 2.19375 18.9656 2.74687 19.6359H12H21.2484C21.8016 18.9656 22.2844 18.2344 22.6875 17.4562H12Z" fill="#BF0A30"/>
<path d="M12 21.8203H5.10938C7.06406 23.1937 9.44063 24 12 24C14.5641 24 16.9406 23.1937 18.8906 21.8203H12Z" fill="#BF0A30"/>
<path d="M11.9999 19.6359H2.75146C3.43584 20.4609 4.22803 21.1969 5.10928 21.8156H11.9999H18.8905C19.7718 21.1969 20.564 20.4609 21.2483 19.6359H11.9999Z" fill="white"/>
<path d="M12 13.0922H0.0515137C0.117139 13.8422 0.257764 14.5687 0.454639 15.2719H12H23.5453C23.7468 14.5687 23.8828 13.8375 23.9484 13.0922H12Z" fill="#BF0A30"/>
<path d="M18.8906 2.17969C16.9406 0.80625 14.5641 0 12 0V2.17969H18.8906Z" fill="#BF0A30"/>
<path d="M12 8.72815H23.5453C23.3297 7.96877 23.0437 7.23752 22.6875 6.54846H12V8.72815Z" fill="white"/>
<path d="M12 6.54376H22.6875C22.2844 5.76095 21.8062 5.03439 21.2531 4.36407H12V6.54376Z" fill="#BF0A30"/>
<path d="M12 4.36407H21.2531C20.5687 3.53907 19.7766 2.80314 18.8953 2.18439H12V4.36407Z" fill="white"/>
<path d="M12 10.9078H23.9531C23.8875 10.1578 23.7469 9.43127 23.55 8.72815H12V10.9078Z" fill="#BF0A30"/>
<path d="M5.10933 2.17969C4.22808 2.80313 3.43589 3.53438 2.75151 4.36406C2.1937 5.03438 1.71089 5.76563 1.31245 6.54375C0.956201 7.2375 0.670264 7.96406 0.454639 8.72344C0.253076 9.42656 0.117139 10.1578 0.0515137 10.9031H12V8.72344V6.54375V4.36406V2.17969V0C9.44058 0 7.05933 0.80625 5.10933 2.17969Z" fill="#002868"/>
<path d="M23.9531 10.9078H12H0.0515625C0.01875 11.2688 0 11.6297 0 12C0 12.3703 0.01875 12.7313 0.0515625 13.0922H12H23.9531C23.9859 12.736 24 12.3703 24 12C24 11.6297 23.9859 11.2688 23.9531 10.9078Z" fill="white"/>
<path d="M6.8438 3.06091L7.57036 5.29216H9.9188L8.02036 6.67497L8.74224 8.90623L6.8438 7.5281L4.94067 8.90623L5.67192 6.67497L3.7688 5.29216H6.11724L6.8438 3.06091Z" fill="white"/>
</g>
<defs>
<clipPath id="clip0_5825_99559">
<rect width="24" height="24" fill="white"/>
</clipPath>
</defs>
</svg>
