<svg width="24" height="24" viewBox="0 0 24 24" fill="none" xmlns="http://www.w3.org/2000/svg">
<path d="M23.3039 7.992H0.671875C0.911875 7.296 1.22388 6.624 1.58388 6C3.67188 2.4 7.55988 0 11.9999 0C16.4399 0 20.3279 2.4 22.3919 6C22.7519 6.624 23.0639 7.296 23.3039 7.992Z" fill="white"/>
<path d="M24 12C24 13.392 23.76 14.76 23.304 16.008H0.672C0.24 14.76 0 13.392 0 12C0 10.608 0.24 9.24 0.672 7.992H23.304C23.76 9.24 24 10.608 24 12Z" fill="#35469C"/>
<path d="M23.3038 16.008C23.0638 16.704 22.7518 17.376 22.3918 18C20.3278 21.6 16.4398 24 11.9998 24C7.5598 24 3.6718 21.6 1.6078 18C1.2478 17.376 0.935801 16.704 0.695801 16.008H23.3038Z" fill="#ED2424"/>
</svg>
