<svg width="24" height="24" viewBox="0 0 24 24" fill="none" xmlns="http://www.w3.org/2000/svg">
<path d="M12 24C18.6274 24 24 18.6274 24 12C24 5.37258 18.6274 0 12 0C5.37258 0 0 5.37258 0 12C0 18.6274 5.37258 24 12 24Z" fill="#EF1620"/>
<path d="M7.00001 7.14502L8.09001 10.5H11.615L8.76501 12.575L9.85501 15.925L7.00001 13.855L4.14501 15.925L5.23501 12.575L2.38501 10.5H5.91001L7.00001 7.14502Z" fill="#FFFF00"/>
<path d="M13.5 4.10999L13.855 5.19999H15L14.075 5.87499L14.425 6.96499L13.5 6.28999L12.575 6.96499L12.925 5.87499L12 5.19999H13.145L13.5 4.10999Z" fill="#FFFF00"/>
<path d="M13.5 16.91L13.855 18H15L14.075 18.675L14.425 19.765L13.5 19.09L12.575 19.765L12.925 18.675L12 18H13.145L13.5 16.91Z" fill="#FFFF00"/>
<path d="M18 12.91L18.355 14H19.5L18.575 14.675L18.925 15.765L18 15.09L17.075 15.765L17.425 14.675L16.5 14H17.645L18 12.91Z" fill="#FFFF00"/>
<path d="M18 7.91L18.355 9H19.5L18.575 9.675L18.925 10.765L18 10.09L17.075 10.765L17.425 9.675L16.5 9H17.645L18 7.91Z" fill="#FFFF00"/>
</svg>
