<svg width="16" height="16" viewBox="0 0 16 16" fill="none" xmlns="http://www.w3.org/2000/svg">
  <path d="M11.5636 8.50502C12.2552 7.80326 12.7239 6.91272 12.9108 5.94535C13.0977 4.97798 12.9945 3.97694 12.6141 3.06806C12.2338 2.15918 11.5932 1.38302 10.773 0.837132C9.95278 0.291247 8.9895 0 8.00424 0C7.01898 0 6.0557 0.291247 5.23548 0.837132C4.41527 1.38302 3.77472 2.15918 3.39435 3.06806C3.01398 3.97694 2.91077 4.97798 3.09768 5.94535C3.2846 6.91272 3.7533 7.80326 4.44487 8.50502C3.13945 9.01819 2.01843 9.91193 1.22733 11.0702C0.436237 12.2285 0.0116004 13.5979 0.00854508 15.0005C0.00847063 15.1318 0.0342717 15.2618 0.084473 15.3831C0.134674 15.5044 0.208291 15.6146 0.301115 15.7074C0.393938 15.8003 0.504148 15.8739 0.625441 15.9241C0.746735 15.9743 0.876735 16.0001 1.00801 16H15.0005C15.1317 16.0001 15.2617 15.9743 15.383 15.9241C15.5043 15.8739 15.6145 15.8003 15.7074 15.7074C15.8002 15.6146 15.8738 15.5044 15.924 15.3831C15.9742 15.2618 16 15.1318 15.9999 15.0005C15.9969 13.5979 15.5722 12.2285 14.7811 11.0702C13.9901 9.91193 12.869 9.01819 11.5636 8.50502ZM8.00424 2.00753C8.59727 2.00753 9.17697 2.18338 9.67005 2.51285C10.1631 2.84232 10.5474 3.3106 10.7744 3.85848C11.0013 4.40637 11.0607 5.00924 10.945 5.59087C10.8293 6.1725 10.5438 6.70676 10.1244 7.1261C9.70509 7.54543 9.17083 7.831 8.5892 7.94669C8.00757 8.06238 7.40469 8.00301 6.85681 7.77607C6.30892 7.54912 5.84064 7.16481 5.51117 6.67173C5.18171 6.17865 5.00586 5.59894 5.00586 5.00592C5.00674 4.21097 5.32292 3.44883 5.88504 2.88671C6.44715 2.3246 7.20929 2.00841 8.00424 2.00753ZM2.10703 14.0011C2.33926 12.8732 2.95314 11.8597 3.84525 11.1315C4.73737 10.4033 5.8532 10.0049 7.00478 10.0032H9.0037C10.1553 10.0049 11.2711 10.4033 12.1632 11.1315C13.0553 11.8597 13.6692 12.8732 13.9014 14.0011H2.10703Z" fill="white"/>
</svg>
