<svg width="14" height="14" viewBox="0 0 14 14" fill="none" xmlns="http://www.w3.org/2000/svg">
  <path fill-rule="evenodd" clip-rule="evenodd" d="M0.292894 12.2929C-0.0976312 12.6834 -0.0976312 13.3166 0.292894 13.7071C0.683418 14.0976 1.31658 14.0976 1.70711 13.7071L7 8.41421L12.2929 13.7071C12.6834 14.0976 13.3166 14.0976 13.7071 13.7071C14.0976 13.3166 14.0976 12.6834 13.7071 12.2929L8.41421 7L13.7071 1.70711C14.0976 1.31658 14.0976 0.683418 13.7071 0.292894C13.3166 -0.0976312 12.6834 -0.0976312 12.2929 0.292894L7 5.58579L1.70711 0.292894C1.31658 -0.0976312 0.683418 -0.0976312 0.292894 0.292894C-0.0976305 0.683418 -0.0976305 1.31658 0.292894 1.70711L5.58579 7L0.292894 12.2929Z" fill="#DCD8EA"/>
</svg>
