<svg width="17" height="20" viewBox="0 0 17 20" fill="none" xmlns="http://www.w3.org/2000/svg">
  <path d="M1.5 10.5V3C1.5 1.89543 2.39543 1 3.5 1H9.5M9.5 1L15.5 7M9.5 1V6C9.5 6.55228 9.94772 7 10.5 7H15.5M15.5 7V10.5" stroke="#2A1B5B" stroke-width="2" stroke-linecap="round" stroke-linejoin="round"/>
  <path d="M8.06604 15.1239C7.96919 15.2069 7.9012 15.3315 7.9012 15.5255C7.9012 15.5845 7.91488 15.6118 7.9274 15.63C7.9442 15.6545 7.98068 15.6921 8.06056 15.7374C8.23724 15.8378 8.49111 15.9064 8.83842 15.9986L8.84981 16.0016C9.15646 16.0831 9.54883 16.1873 9.86023 16.377C10.211 16.5908 10.5 16.9395 10.5 17.4746C10.5 18.0354 10.2622 18.4595 9.85918 18.7174C9.49147 18.9527 9.03689 19.0176 8.63211 19.0176H8.63083C8.08717 19.0162 7.55839 18.8399 7.1226 18.5148C6.90688 18.3539 6.86244 18.0486 7.02334 17.8329C7.18424 17.6172 7.48954 17.5728 7.70526 17.7337C7.97328 17.9336 8.29847 18.042 8.63282 18.043C8.95859 18.043 9.19408 17.986 9.33385 17.8966C9.43839 17.8297 9.52545 17.7258 9.52545 17.4746C9.52545 17.3599 9.48962 17.2924 9.3531 17.2092C9.18109 17.1044 8.92966 17.0312 8.58823 16.9405L8.53489 16.9264C8.24036 16.8485 7.87206 16.7511 7.57942 16.5849C7.41567 16.492 7.24911 16.364 7.12379 16.1813C6.99419 15.9924 6.92665 15.7709 6.92665 15.5255C6.92665 15.0697 7.10231 14.6664 7.43182 14.384C7.75334 14.1084 8.17975 13.9824 8.63211 13.9824L8.6334 13.9824C9.17706 13.9839 9.70584 14.1601 10.1416 14.4852C10.3574 14.6461 10.4018 14.9514 10.2409 15.1671C10.08 15.3828 9.77468 15.4272 9.55897 15.2663C9.29096 15.0665 8.9658 14.958 8.63147 14.957C8.35329 14.9571 8.17081 15.0341 8.06604 15.1239Z" fill="#2A1B5B"/>
  <path d="M1.97455 16.4987C1.97455 15.6476 2.59025 15.038 3.27199 15.0368C3.5721 15.0397 3.8606 15.1533 4.08214 15.3559C4.28076 15.5374 4.58898 15.5236 4.77056 15.325C4.95214 15.1264 4.93832 14.8182 4.7397 14.6366C4.34005 14.2712 3.81935 14.0667 3.27788 14.0623L3.27395 14.0623C1.97488 14.0623 1 15.1903 1 16.4987C1 17.807 1.97488 18.935 3.27395 18.935L3.27788 18.935C3.81935 18.9306 4.34005 18.7261 4.7397 18.3607C4.93832 18.1791 4.95214 17.8709 4.77056 17.6723C4.58898 17.4737 4.28076 17.4599 4.08214 17.6414C3.8606 17.844 3.5721 17.9576 3.27199 17.9605C2.59025 17.9593 1.97455 17.3497 1.97455 16.4987Z" fill="#2A1B5B"/>
  <path d="M12.8324 14.3623C12.7288 14.1139 12.4436 13.9964 12.1951 14.0999C11.9467 14.2034 11.8293 14.4887 11.9328 14.7371L13.557 18.6353C13.6327 18.8169 13.8101 18.9352 14.0068 18.9352C14.2035 18.9352 14.3809 18.8169 14.4566 18.6353L16.0808 14.7371C16.1844 14.4887 16.0669 14.2034 15.8185 14.0999C15.5701 13.9964 15.2848 14.1139 15.1813 14.3623L14.0068 17.181L12.8324 14.3623Z" fill="#2A1B5B"/>
  <path d="M8.06604 15.1239C7.96919 15.2069 7.9012 15.3315 7.9012 15.5255C7.9012 15.5845 7.91488 15.6118 7.9274 15.63C7.9442 15.6545 7.98068 15.6921 8.06056 15.7374C8.23724 15.8378 8.49111 15.9064 8.83842 15.9986L8.84981 16.0016C9.15646 16.0831 9.54883 16.1873 9.86023 16.377C10.211 16.5908 10.5 16.9395 10.5 17.4746C10.5 18.0354 10.2622 18.4595 9.85918 18.7174C9.49147 18.9527 9.03689 19.0176 8.63211 19.0176H8.63083C8.08717 19.0162 7.55839 18.8399 7.1226 18.5148C6.90688 18.3539 6.86244 18.0486 7.02334 17.8329C7.18424 17.6172 7.48954 17.5728 7.70526 17.7337C7.97328 17.9336 8.29847 18.042 8.63282 18.043C8.95859 18.043 9.19408 17.986 9.33385 17.8966C9.43839 17.8297 9.52545 17.7258 9.52545 17.4746C9.52545 17.3599 9.48962 17.2924 9.3531 17.2092C9.18109 17.1044 8.92966 17.0312 8.58823 16.9405L8.53489 16.9264C8.24036 16.8485 7.87206 16.7511 7.57942 16.5849C7.41567 16.492 7.24911 16.364 7.12379 16.1813C6.99419 15.9924 6.92665 15.7709 6.92665 15.5255C6.92665 15.0697 7.10231 14.6664 7.43182 14.384C7.75334 14.1084 8.17975 13.9824 8.63211 13.9824L8.6334 13.9824C9.17706 13.9839 9.70584 14.1601 10.1416 14.4852C10.3574 14.6461 10.4018 14.9514 10.2409 15.1671C10.08 15.3828 9.77468 15.4272 9.55897 15.2663C9.29096 15.0665 8.9658 14.958 8.63147 14.957C8.35329 14.9571 8.17081 15.0341 8.06604 15.1239Z" stroke="#2A1B5B" stroke-width="0.3" stroke-linecap="round" stroke-linejoin="round"/>
  <path d="M1.97455 16.4987C1.97455 15.6476 2.59025 15.038 3.27199 15.0368C3.5721 15.0397 3.8606 15.1533 4.08214 15.3559C4.28076 15.5374 4.58898 15.5236 4.77056 15.325C4.95214 15.1264 4.93832 14.8182 4.7397 14.6366C4.34005 14.2712 3.81935 14.0667 3.27788 14.0623L3.27395 14.0623C1.97488 14.0623 1 15.1903 1 16.4987C1 17.807 1.97488 18.935 3.27395 18.935L3.27788 18.935C3.81935 18.9306 4.34005 18.7261 4.7397 18.3607C4.93832 18.1791 4.95214 17.8709 4.77056 17.6723C4.58898 17.4737 4.28076 17.4599 4.08214 17.6414C3.8606 17.844 3.5721 17.9576 3.27199 17.9605C2.59025 17.9593 1.97455 17.3497 1.97455 16.4987Z" stroke="#2A1B5B" stroke-width="0.3" stroke-linecap="round" stroke-linejoin="round"/>
  <path d="M12.8324 14.3623C12.7288 14.1139 12.4436 13.9964 12.1951 14.0999C11.9467 14.2034 11.8293 14.4887 11.9328 14.7371L13.557 18.6353C13.6327 18.8169 13.8101 18.9352 14.0068 18.9352C14.2035 18.9352 14.3809 18.8169 14.4566 18.6353L16.0808 14.7371C16.1844 14.4887 16.0669 14.2034 15.8185 14.0999C15.5701 13.9964 15.2848 14.1139 15.1813 14.3623L14.0068 17.181L12.8324 14.3623Z" stroke="#2A1B5B" stroke-width="0.3" stroke-linecap="round" stroke-linejoin="round"/>
</svg>
