<svg width="24" height="24" viewBox="0 0 24 24" fill="none" xmlns="http://www.w3.org/2000/svg">
<circle cx="12" cy="12" r="12" fill="#FAB62C"/>
<path fill-rule="evenodd" clip-rule="evenodd" d="M5.4375 9.90369H7.14299V6H12.4963C13.357 6.03943 15.3625 6.41639 16.4995 7.60879C17.6365 8.8012 17.9997 9.60402 18.0392 9.85638H19.5551V11.2759H18.3708C18.3945 11.4021 18.4418 11.7301 18.4418 12.033C18.4418 12.3358 18.3945 12.6481 18.3708 12.7664H19.5551V14.1386H18.0392C17.7707 14.9036 16.8406 16.5991 15.2677 17.2616C13.6949 17.924 12.5279 18.0265 12.141 17.995H7.14299V14.1386H5.4375V12.7664H7.14299V11.2759H5.4375V9.90369ZM12.4963 7.23026H8.49316V9.85638H16.4995C16.2152 9.33589 16.0494 9.07091 15.2914 8.29491C14.5334 7.5189 13.1122 7.26181 12.4963 7.23026ZM16.9022 11.2759H8.49316V12.7664H16.9022C16.9337 12.6481 16.9969 12.3358 16.9969 12.033C16.9969 11.7302 16.9337 11.4021 16.9022 11.2759ZM8.49316 16.7884V14.1386H16.4995C16.2784 14.6749 15.5141 15.8657 14.2255 16.3389C12.9933 16.7914 12.4715 16.7895 12.1797 16.7885L12.141 16.7884H8.49316Z" fill="white"/>
</svg>
