<svg width="24" height="24" viewBox="0 0 24 24" fill="none" xmlns="http://www.w3.org/2000/svg">
<g clip-path="url(#clip0_703_294)">
<path fill-rule="evenodd" clip-rule="evenodd" d="M11.0572 12.0418H5.53719V14.2267H8.08999L8.08119 16.9725C7.98328 17.0781 7.86665 17.1647 7.73719 17.2277C7.56917 17.3143 7.39382 17.3858 7.21319 17.4414C7.00524 17.5061 6.79261 17.5548 6.57719 17.587C6.34925 17.6219 6.11898 17.6392 5.88839 17.639C5.45752 17.6609 5.02867 17.5668 4.64661 17.3664C4.26454 17.166 3.94329 16.8667 3.71639 16.4997C3.18435 15.5021 2.93536 14.378 2.99639 13.2491V11.1689C2.98729 10.5332 3.05852 9.89876 3.20839 9.28082C3.32396 8.7969 3.51713 8.33489 3.78039 7.91273C3.99367 7.57131 4.28379 7.28446 4.62759 7.07507C4.94827 6.88568 5.31437 6.78696 5.68679 6.78945C6.00358 6.76313 6.32241 6.8017 6.62379 6.90281C6.92517 7.00392 7.20276 7.16544 7.43959 7.37749C7.86032 7.86965 8.11114 8.48438 8.15479 9.13041H11.0572C10.9925 8.45389 10.8264 7.79096 10.5644 7.16388C10.3277 6.59932 9.97181 6.09254 9.52119 5.67818C9.04736 5.25581 8.48955 4.93844 7.88439 4.74692C7.14898 4.51971 6.38195 4.41167 5.61239 4.4269C4.84853 4.41981 4.09194 4.57583 3.39319 4.88453C2.70892 5.19154 2.10105 5.64617 1.61319 6.21581C1.08397 6.84159 0.681075 7.56403 0.42679 8.34315C0.129082 9.26181 -0.014723 10.2234 0.00118977 11.1889V13.2491C-0.013034 14.2129 0.124653 15.173 0.40919 16.0941C0.648467 16.871 1.04312 17.5912 1.56919 18.211C2.06518 18.7827 2.68447 19.2344 3.38039 19.5319C4.13149 19.8458 4.93922 20.0016 5.75319 19.9895C6.36511 19.9933 6.9758 19.934 7.57559 19.8127C8.09929 19.7073 8.61174 19.5522 9.10599 19.3495C9.52218 19.1802 9.91844 18.9656 10.2876 18.7094C10.5775 18.5114 10.841 18.2773 11.0716 18.0126L11.0572 12.0418ZM13.186 14.2683C13.1779 15.0443 13.2999 15.8161 13.5468 16.5517C13.7712 17.222 14.1297 17.8396 14.6004 18.367C15.0738 18.8875 15.6562 19.2973 16.306 19.5671C17.0368 19.8658 17.8206 20.0128 18.61 19.9991C19.3941 20.0125 20.1727 19.8655 20.898 19.5671C21.5447 19.2971 22.1236 18.8873 22.5932 18.367C23.0606 17.8381 23.4172 17.2208 23.642 16.5517C23.8882 15.8159 24.0099 15.0442 24.002 14.2683V14.0491C24.0093 13.2767 23.8877 12.5085 23.642 11.7762C23.4169 11.106 23.0582 10.4884 22.5876 9.96086C22.1148 9.44053 21.5348 9.02891 20.8876 8.75438C19.4124 8.17171 17.7708 8.17171 16.2956 8.75438C15.6501 9.0296 15.0719 9.44117 14.6004 9.96086C14.1297 10.4883 13.7713 11.1059 13.5468 11.7762C13.3005 12.5084 13.1785 13.2766 13.186 14.0491V14.2675V14.2683ZM16.1308 14.0499C16.1287 13.6128 16.1752 13.1768 16.2692 12.7498C16.35 12.3669 16.4967 12.0009 16.7028 11.6682C16.8984 11.347 17.1765 11.084 17.508 10.9066C17.8396 10.7292 18.2127 10.6438 18.5884 10.6593C18.9836 10.647 19.3749 10.7403 19.722 10.9297C20.032 11.1091 20.2924 11.3629 20.4796 11.6682C20.6828 12.0018 20.8278 12.3676 20.9084 12.7498C21.0024 13.1768 21.0488 13.6128 21.0468 14.0499V14.2683C21.0494 14.7142 21.003 15.1591 20.9084 15.5948C20.829 15.9775 20.6839 16.3434 20.4796 16.6765C20.2854 16.9951 20.0098 17.256 19.6812 17.4325C19.3525 17.609 18.9828 17.6947 18.61 17.6806C18.2131 17.6923 17.8201 17.5991 17.4708 17.4102C17.1589 17.2318 16.8952 16.9799 16.7028 16.6765C16.4955 16.3444 16.3487 15.9782 16.2692 15.5948C16.1746 15.1591 16.1282 14.7142 16.1308 14.2683V14.0491V14.0499ZM14.7332 5.80939C14.8013 5.96607 14.9022 6.1063 15.0292 6.22061C15.1627 6.3388 15.3174 6.43056 15.4852 6.49103C15.8623 6.6228 16.2729 6.6228 16.65 6.49103C16.8177 6.43056 16.9725 6.3388 17.106 6.22061C17.2329 6.1063 17.3339 5.96607 17.402 5.80939C17.4721 5.64864 17.5083 5.47514 17.5083 5.29975C17.5083 5.12437 17.4721 4.95087 17.402 4.79012C17.333 4.63255 17.2322 4.49092 17.106 4.37409C16.9736 4.25319 16.8186 4.15966 16.65 4.09887C16.2729 3.96704 15.8623 3.96704 15.4852 4.09887C15.3165 4.1599 15.1615 4.25371 15.0292 4.37489C14.9029 4.49172 14.8022 4.63335 14.7332 4.79092C14.6631 4.95167 14.6269 5.12517 14.6269 5.30055C14.6269 5.47594 14.6631 5.64944 14.7332 5.81019V5.80939ZM19.818 5.81979C19.8869 5.9774 19.9877 6.11905 20.114 6.23582C20.2463 6.357 20.4013 6.45081 20.57 6.51183C20.9471 6.6436 21.3577 6.6436 21.7348 6.51183C21.9035 6.45081 22.0585 6.357 22.1908 6.23582C22.3171 6.11905 22.4179 5.9774 22.4868 5.81979C22.5584 5.65583 22.5946 5.47865 22.5932 5.29975C22.5939 5.12429 22.5576 4.95064 22.4868 4.79012C22.4187 4.63344 22.3177 4.49321 22.1908 4.37889C22.0573 4.26072 21.9025 4.16896 21.7348 4.10848C21.3577 3.97664 20.9471 3.97664 20.57 4.10848C20.4023 4.16896 20.2475 4.26072 20.114 4.37889C19.987 4.49321 19.8861 4.63344 19.818 4.79012C19.7468 4.95052 19.7105 5.12425 19.7116 5.29975C19.7096 5.47895 19.7459 5.65651 19.818 5.82059V5.81979Z" fill="black"/>
</g>
<defs>
<clipPath id="clip0_703_294">
<rect width="24" height="24" fill="white"/>
</clipPath>
</defs>
</svg>
