<svg width="18" height="19" viewBox="0 0 18 19" fill="none" xmlns="http://www.w3.org/2000/svg">
<path fill-rule="evenodd" clip-rule="evenodd" d="M14 2H4V4V8V9H14V8V4V2Z" fill="#ECC99E"/>
<rect x="4" y="1" width="10" height="6" fill="#263238"/>
<rect x="5" y="3" width="8" height="5" fill="#ECC99E"/>
<path fill-rule="evenodd" clip-rule="evenodd" d="M14 6H4V11H5V12H13V11H14V6Z" fill="#ECC99E"/>
<rect x="6" y="9" width="6" height="4" fill="#ECC99E"/>
<rect x="4" y="6" width="10" height="4" fill="#ECC99E"/>
<path fill-rule="evenodd" clip-rule="evenodd" d="M14 15H4V16H3V18H15V16H14V15Z" fill="#555757"/>
<rect x="3" y="6" width="12" height="3" fill="#263238"/>
<rect x="8" y="8" width="2" height="1" fill="#ECC99E"/>
<rect x="3" y="5" width="12" height="1" fill="#B89879"/>
<rect x="1" y="4" width="16" height="1" fill="#263238"/>
<rect x="3" y="3" width="12" height="1" fill="#555757"/>
<rect x="7" y="12" width="4" height="4" fill="#ECC99E"/>
<rect x="7" y="13" width="4" height="1" fill="#CBAA88"/>
<rect x="5" y="7" width="2" height="1" fill="white"/>
<rect x="11" y="7" width="2" height="1" fill="white"/>
</svg>
