<svg width="25" height="24" viewBox="0 0 25 24" fill="none" xmlns="http://www.w3.org/2000/svg">
  <path d="M9.96772 6.43618L9.78878 6.62849L8.88854 7.56799L8.7154 7.4823C8.01991 7.15339 7.29259 6.99999 6.56604 6.99999C3.70653 6.99999 1.56604 9.3066 1.56604 12C1.56604 14.7032 3.75929 17 6.56604 17C7.92539 17 9.27312 16.4115 10.1799 15.4553L12.6518 12.8461L15.4277 9.90073C15.9972 9.29593 16.789 8.99999 17.566 8.99999C19.2044 8.99999 20.566 10.3159 20.566 12C20.566 13.6039 19.2609 15 17.566 15C16.6245 15 16.0612 14.7056 15.3195 13.9731L14.9765 13.6226L14.6524 13.2799L14.2765 12.8733C14.1784 12.7663 14.0102 12.7649 13.9104 12.8704L12.8844 13.9556C12.7935 14.0518 12.7932 14.2021 12.8838 14.2985L13.8553 15.3353L13.9862 15.469C14.1575 15.64 14.3314 15.7967 14.5202 15.9454C15.3648 16.6104 16.3587 17 17.566 17C20.3986 17 22.566 14.6905 22.566 12C22.566 9.27522 20.3727 6.99999 17.566 6.99999C16.1599 6.99999 14.836 7.57767 13.8543 8.64002L12.6771 9.91057L11.3273 11.3526L8.73173 14.0733C8.13548 14.6983 7.37842 15 6.56604 15C4.86507 15 3.56604 13.6075 3.56604 12C3.56604 10.3907 4.8622 8.99999 6.56604 8.99999L6.68376 9.0024C6.88426 9.01043 7.10356 9.03848 7.30122 9.0859L7.39304 9.10999L6.48146 10.0201C6.43462 10.0672 6.39262 10.1095 6.34956 10.1531C6.20166 10.3028 6.2936 10.5571 6.50304 10.5776L9.46443 10.8641L10.287 10.9382C10.4366 10.951 10.5636 10.83 10.5581 10.68L10.4012 6.59683C10.3932 6.37377 10.1191 6.27219 9.96772 6.43618Z" fill="#6D6489"/>
</svg>
