<svg width="107" height="28" viewBox="0 0 107 28" fill="none" xmlns="http://www.w3.org/2000/svg">
  <path d="M16.4825 27.6856H0L8.32432 12.975H0V7.95457H16.4825L8.15821 22.6652H16.4825V27.6856Z" fill="url(#paint0_linear)"/>
  <path d="M24.3639 27.6856H19.2881V0.0547638H24.3639V17.4786L31.8761 7.95457H37.6717L31.1193 16.1866L37.6717 27.6856H31.8761L27.8708 20.5057L24.3639 25.1569V27.6856Z" fill="url(#paint1_linear)"/>
  <path d="M61.619 19.6941C61.619 20.7893 61.4098 21.8167 60.9914 22.7765C60.573 23.7363 60.0009 24.5792 59.2749 25.3052C58.5612 26.0189 57.7244 26.5849 56.7647 27.0033C55.8049 27.4217 54.7774 27.6308 53.6823 27.6308H40.4482V1.16282H53.6823C54.7774 1.16282 55.8049 1.37201 56.7647 1.79038C57.7244 2.20875 58.5612 2.78093 59.2749 3.50692C60.0009 4.22061 60.573 5.05735 60.9914 6.01714C61.4098 6.97693 61.619 8.00439 61.619 9.09954C61.619 9.59174 61.5513 10.0962 61.4159 10.6131C61.2806 11.1299 61.0899 11.6282 60.8438 12.1081C60.5977 12.588 60.3023 13.0248 59.9578 13.4186C59.6133 13.8123 59.2318 14.1384 58.8134 14.3968C59.2441 14.6306 59.6317 14.9506 59.9763 15.3566C60.3208 15.7504 60.6161 16.1872 60.8622 16.6671C61.1083 17.147 61.2929 17.6515 61.4159 18.1806C61.5513 18.6974 61.619 19.2019 61.619 19.6941ZM45.7455 22.3336H53.6823C54.0514 22.3336 54.3959 22.2659 54.7159 22.1305C55.0358 21.9952 55.3127 21.8106 55.5465 21.5768C55.7926 21.3307 55.9833 21.0477 56.1186 20.7278C56.254 20.4078 56.3217 20.0633 56.3217 19.6941C56.3217 19.325 56.254 18.9804 56.1186 18.6605C55.9833 18.3406 55.7926 18.0637 55.5465 17.8299C55.3127 17.5838 55.0358 17.3931 54.7159 17.2577C54.3959 17.1224 54.0514 17.0547 53.6823 17.0547H45.7455V22.3336ZM45.7455 11.7574H53.6823C54.0514 11.7574 54.3959 11.6897 54.7159 11.5544C55.0358 11.419 55.3127 11.2345 55.5465 11.0007C55.7926 10.7546 55.9833 10.4715 56.1186 10.1516C56.254 9.81938 56.3217 9.46869 56.3217 9.09954C56.3217 8.73039 56.254 8.38585 56.1186 8.06592C55.9833 7.74599 55.7926 7.46913 55.5465 7.23533C55.3127 6.98923 55.0358 6.79851 54.7159 6.66315C54.3959 6.5278 54.0514 6.46012 53.6823 6.46012H45.7455V11.7574Z" fill="#2A1B5B"/>
  <path d="M84.1925 17.5715C84.1925 19.0481 83.9279 20.4263 83.3988 21.706C82.8697 22.9734 82.1498 24.0747 81.2393 25.0099C80.3287 25.9328 79.2582 26.6649 78.0277 27.2063C76.8095 27.7354 75.499 28 74.0962 28C72.7058 28 71.3953 27.7354 70.1648 27.2063C68.9466 26.6649 67.8761 25.9328 66.9532 25.0099C66.0426 24.0747 65.3228 22.9734 64.7937 21.706C64.2645 20.4263 64 19.0481 64 17.5715C64 16.0703 64.2645 14.6799 64.7937 13.4001C65.3228 12.1204 66.0426 11.0191 66.9532 10.0962C67.8761 9.16106 68.9466 8.42892 70.1648 7.8998C71.3953 7.37069 72.7058 7.10613 74.0962 7.10613C75.499 7.10613 76.8095 7.35838 78.0277 7.86289C79.2582 8.35509 80.3287 9.06262 81.2393 9.9855C82.1498 10.8961 82.8697 11.9974 83.3988 13.2894C83.9279 14.5691 84.1925 15.9965 84.1925 17.5715ZM79.1167 17.5715C79.1167 16.7594 78.9813 16.0272 78.7106 15.3751C78.4522 14.7106 78.0954 14.1446 77.6401 13.677C77.1848 13.1971 76.6495 12.8341 76.0343 12.588C75.4313 12.3296 74.7853 12.2004 74.0962 12.2004C73.4072 12.2004 72.755 12.3296 72.1397 12.588C71.5368 12.8341 71.0077 13.1971 70.5524 13.677C70.1094 14.1446 69.7587 14.7106 69.5003 15.3751C69.2419 16.0272 69.1127 16.7594 69.1127 17.5715C69.1127 18.3344 69.2419 19.042 69.5003 19.6941C69.7587 20.3463 70.1094 20.9123 70.5524 21.3922C71.0077 21.8721 71.5368 22.2536 72.1397 22.5366C72.755 22.8073 73.4072 22.9426 74.0962 22.9426C74.7853 22.9426 75.4313 22.8134 76.0343 22.555C76.6495 22.2966 77.1848 21.9336 77.6401 21.4661C78.0954 20.9985 78.4522 20.4324 78.7106 19.768C78.9813 19.1035 79.1167 18.3713 79.1167 17.5715Z" fill="#2A1B5B"/>
  <path d="M106.766 17.5715C106.766 19.122 106.501 20.537 105.972 21.8167C105.443 23.0965 104.723 24.1978 103.813 25.1206C102.902 26.0312 101.832 26.7387 100.601 27.2432C99.383 27.7477 98.0725 28 96.6697 28C95.2793 28 93.9688 27.7416 92.7383 27.2248C91.5201 26.708 90.4496 25.9881 89.5267 25.0653C88.6161 24.1424 87.8963 23.0472 87.3672 21.7798C86.838 20.5001 86.5735 19.0973 86.5735 17.5715V0H91.6308V9.22874C91.9016 8.8842 92.2276 8.57658 92.6091 8.30587C93.0028 8.03516 93.4212 7.81367 93.8642 7.6414C94.3195 7.46913 94.7871 7.33993 95.267 7.25379C95.7469 7.15535 96.2144 7.10613 96.6697 7.10613C98.0725 7.10613 99.383 7.37069 100.601 7.8998C101.832 8.41661 102.902 9.14261 103.813 10.0778C104.723 11.013 105.443 12.1204 105.972 13.4001C106.501 14.6675 106.766 16.058 106.766 17.5715ZM101.69 17.5715C101.69 16.8086 101.555 16.1011 101.284 15.4489C101.026 14.7844 100.669 14.2123 100.214 13.7324C99.7583 13.2525 99.223 12.8772 98.6078 12.6065C98.0048 12.3358 97.3588 12.2004 96.6697 12.2004C95.9807 12.2004 95.3285 12.3542 94.7132 12.6618C94.1103 12.9572 93.5812 13.3571 93.1259 13.8616C92.6706 14.3538 92.3138 14.926 92.0554 15.5781C91.797 16.218 91.6678 16.8824 91.6678 17.5715C91.6678 18.3344 91.797 19.042 92.0554 19.6941C92.3138 20.3463 92.6706 20.9123 93.1259 21.3922C93.5812 21.8721 94.1103 22.2536 94.7132 22.5366C95.3285 22.8073 95.9807 22.9426 96.6697 22.9426C97.3588 22.9426 98.0048 22.8073 98.6078 22.5366C99.223 22.2536 99.7583 21.8721 100.214 21.3922C100.669 20.9123 101.026 20.3463 101.284 19.6941C101.555 19.042 101.69 18.3344 101.69 17.5715Z" fill="#2A1B5B"/>
  <defs>
    <linearGradient id="paint0_linear" x1="0.0620289" y1="3.20797" x2="39.722" y2="29.3898" gradientUnits="userSpaceOnUse">
      <stop offset="0.053951" stop-color="#6D5CFF"/>
      <stop offset="0.559189" stop-color="#E86EFF"/>
      <stop offset="0.923794" stop-color="#FFD66E"/>
    </linearGradient>
    <linearGradient id="paint1_linear" x1="0.0620289" y1="3.20797" x2="39.722" y2="29.3898" gradientUnits="userSpaceOnUse">
      <stop offset="0.053951" stop-color="#6D5CFF"/>
      <stop offset="0.559189" stop-color="#E86EFF"/>
      <stop offset="0.923794" stop-color="#FFD66E"/>
    </linearGradient>
  </defs>
</svg>
