<svg width="130" height="28" viewBox="0 0 130 28" fill="none" xmlns="http://www.w3.org/2000/svg">
  <path d="M16.476 27.6855H0L8.32102 12.9749H0V7.95449H16.476L8.15496 22.6651H16.476V27.6855Z" fill="url(#paint0_linear_1143_12331)"/>
  <path d="M24.3542 27.6855H19.2804V0.0546875H24.3542V17.4786L31.8634 7.95449H37.6567L31.1069 16.1865L37.6567 27.6855H31.8634L27.8597 20.5056L24.3542 25.1569V27.6855Z" fill="url(#paint1_linear_1143_12331)"/>
  <path d="M61.5944 19.6941C61.5944 20.7893 61.3853 21.8167 60.9671 22.7765C60.5489 23.7363 59.977 24.5792 59.2513 25.3052C58.5379 26.0189 57.7015 26.5849 56.7421 27.0033C55.7827 27.4217 54.7556 27.6309 53.6609 27.6309H40.4321V1.16282H53.6609C54.7556 1.16282 55.7827 1.37201 56.7421 1.79038C57.7015 2.20875 58.5379 2.78093 59.2513 3.50692C59.977 4.22061 60.5489 5.05735 60.9671 6.01714C61.3853 6.97693 61.5944 8.00439 61.5944 9.09954C61.5944 9.59174 61.5268 10.0962 61.3915 10.6131C61.2562 11.1299 61.0655 11.6282 60.8195 12.1081C60.5735 12.588 60.2783 13.0248 59.9339 13.4186C59.5895 13.8123 59.2082 14.1384 58.79 14.3968C59.2205 14.6306 59.608 14.9506 59.9524 15.3566C60.2968 15.7504 60.592 16.1872 60.838 16.6671C61.084 17.147 61.2685 17.6515 61.3915 18.1806C61.5268 18.6974 61.5944 19.2019 61.5944 19.6941ZM45.7273 22.3336H53.6609C54.0299 22.3336 54.3743 22.2659 54.6941 22.1305C55.0139 21.9952 55.2906 21.8106 55.5243 21.5768C55.7704 21.3307 55.961 21.0477 56.0963 20.7278C56.2316 20.4078 56.2993 20.0633 56.2993 19.6941C56.2993 19.325 56.2316 18.9804 56.0963 18.6605C55.961 18.3406 55.7704 18.0637 55.5243 17.8299C55.2906 17.5838 55.0139 17.3931 54.6941 17.2577C54.3743 17.1224 54.0299 17.0547 53.6609 17.0547H45.7273V22.3336ZM45.7273 11.7574H53.6609C54.0299 11.7574 54.3743 11.6897 54.6941 11.5544C55.0139 11.419 55.2906 11.2345 55.5243 11.0007C55.7704 10.7546 55.961 10.4715 56.0963 10.1516C56.2316 9.81938 56.2993 9.46869 56.2993 9.09954C56.2993 8.73039 56.2316 8.38585 56.0963 8.06592C55.961 7.74599 55.7704 7.46913 55.5243 7.23533C55.2906 6.98923 55.0139 6.79851 54.6941 6.66315C54.3743 6.5278 54.0299 6.46012 53.6609 6.46012H45.7273V11.7574Z" fill="#2A1B5B"/>
  <path d="M84.159 17.5715C84.159 19.0481 83.8945 20.4263 83.3656 21.706C82.8367 22.9734 82.1172 24.0747 81.207 25.0099C80.2967 25.9328 79.2266 26.6649 77.9966 27.2063C76.7789 27.7354 75.469 28 74.0667 28C72.6768 28 71.3669 27.7354 70.1369 27.2063C68.9192 26.6649 67.849 25.9328 66.9265 25.0099C66.0163 24.0747 65.2968 22.9734 64.7679 21.706C64.239 20.4263 63.9745 19.0481 63.9745 17.5715C63.9745 16.0703 64.239 14.6799 64.7679 13.4001C65.2968 12.1204 66.0163 11.0191 66.9265 10.0962C67.849 9.16106 68.9192 8.42892 70.1369 7.8998C71.3669 7.37069 72.6768 7.10613 74.0667 7.10613C75.469 7.10613 76.7789 7.35838 77.9966 7.86289C79.2266 8.35509 80.2967 9.06262 81.207 9.9855C82.1172 10.8961 82.8367 11.9974 83.3656 13.2894C83.8945 14.5691 84.159 15.9965 84.159 17.5715ZM79.0852 17.5715C79.0852 16.7594 78.9499 16.0272 78.6793 15.3751C78.421 14.7106 78.0643 14.1446 77.6092 13.677C77.1541 13.1971 76.619 12.8341 76.004 12.588C75.4013 12.3296 74.7556 12.2004 74.0667 12.2004C73.3779 12.2004 72.726 12.3296 72.111 12.588C71.5083 12.8341 70.9794 13.1971 70.5243 13.677C70.0815 14.1446 69.731 14.7106 69.4727 15.3751C69.2144 16.0272 69.0852 16.7594 69.0852 17.5715C69.0852 18.3344 69.2144 19.042 69.4727 19.6941C69.731 20.3463 70.0815 20.9123 70.5243 21.3922C70.9794 21.8721 71.5083 22.2536 72.111 22.5366C72.726 22.8073 73.3779 22.9426 74.0667 22.9426C74.7556 22.9426 75.4013 22.8134 76.004 22.555C76.619 22.2966 77.1541 21.9336 77.6092 21.4661C78.0643 20.9985 78.421 20.4324 78.6793 19.768C78.9499 19.1035 79.0852 18.3713 79.0852 17.5715Z" fill="#2A1B5B"/>
  <path d="M106.724 17.5715C106.724 19.122 106.459 20.537 105.93 21.8167C105.401 23.0965 104.682 24.1978 103.771 25.1206C102.861 26.0312 101.791 26.7387 100.561 27.2432C99.3434 27.7477 98.0335 28 96.6313 28C95.2414 28 93.9314 27.7416 92.7014 27.2248C91.4837 26.708 90.4136 25.9881 89.4911 25.0653C88.5809 24.1424 87.8613 23.0472 87.3324 21.7798C86.8035 20.5001 86.539 19.0973 86.539 17.5715V0H91.5944V9.22874C91.865 8.8842 92.1909 8.57658 92.5722 8.30587C92.9658 8.03516 93.384 7.81367 93.8269 7.6414C94.282 7.46913 94.7494 7.33993 95.2291 7.25379C95.7088 7.15535 96.1762 7.10613 96.6313 7.10613C98.0335 7.10613 99.3434 7.37069 100.561 7.8998C101.791 8.41661 102.861 9.14261 103.771 10.0778C104.682 11.013 105.401 12.1204 105.93 13.4001C106.459 14.6675 106.724 16.058 106.724 17.5715ZM101.65 17.5715C101.65 16.8086 101.514 16.1011 101.244 15.4489C100.986 14.7844 100.629 14.2123 100.174 13.7324C99.7186 13.2525 99.1835 12.8772 98.5685 12.6065C97.9658 12.3358 97.3201 12.2004 96.6313 12.2004C95.9425 12.2004 95.2906 12.3542 94.6756 12.6618C94.0729 12.9572 93.5439 13.3571 93.0888 13.8616C92.6337 14.3538 92.277 14.926 92.0187 15.5781C91.7604 16.218 91.6313 16.8824 91.6313 17.5715C91.6313 18.3344 91.7604 19.042 92.0187 19.6941C92.277 20.3463 92.6337 20.9123 93.0888 21.3922C93.5439 21.8721 94.0729 22.2536 94.6756 22.5366C95.2906 22.8073 95.9425 22.9426 96.6313 22.9426C97.3201 22.9426 97.9658 22.8073 98.5685 22.5366C99.1835 22.2536 99.7186 21.8721 100.174 21.3922C100.629 20.9123 100.986 20.3463 101.244 19.6941C101.514 19.042 101.65 18.3344 101.65 17.5715Z" fill="#2A1B5B"/>
  <path d="M111.539 3.75562C111.88 3.93393 112.148 4.1791 112.341 4.49114C112.534 4.80318 112.631 5.16352 112.631 5.57214C112.631 6.21108 112.404 6.74229 111.951 7.16577C111.498 7.58926 110.944 7.801 110.29 7.801H106.946V0H110.045C110.684 0 111.223 0.208027 111.661 0.62408C112.107 1.0327 112.33 1.54534 112.33 2.16199C112.33 2.83808 112.066 3.36929 111.539 3.75562ZM110.045 1.20358H108.228V3.25413H110.045C110.327 3.25413 110.565 3.15755 110.758 2.96438C110.952 2.76378 111.048 2.51861 111.048 2.22886C111.048 1.9391 110.952 1.69765 110.758 1.50448C110.565 1.30388 110.327 1.20358 110.045 1.20358ZM110.29 6.59741C110.587 6.59741 110.836 6.4934 111.037 6.28537C111.245 6.06992 111.349 5.80988 111.349 5.50527C111.349 5.20066 111.245 4.94435 111.037 4.73632C110.836 4.52086 110.587 4.41314 110.29 4.41314H108.228V6.59741H110.29Z" fill="#E16EFF"/>
  <path d="M114.673 5.52756C114.762 5.95105 114.967 6.27794 115.286 6.50826C115.606 6.73115 115.996 6.84259 116.457 6.84259C117.096 6.84259 117.575 6.61227 117.894 6.15164L118.886 6.73115C118.337 7.54096 117.523 7.94587 116.445 7.94587C115.539 7.94587 114.807 7.67098 114.25 7.1212C113.692 6.56398 113.414 5.86189 113.414 5.01493C113.414 4.18282 113.689 3.48816 114.239 2.93095C114.788 2.3663 115.494 2.08398 116.356 2.08398C117.174 2.08398 117.842 2.37002 118.363 2.94209C118.89 3.51416 119.154 4.20882 119.154 5.02607C119.154 5.15237 119.139 5.31954 119.109 5.52756H114.673ZM114.662 4.54687H117.939C117.857 4.09367 117.668 3.75191 117.371 3.52159C117.081 3.29128 116.739 3.17612 116.345 3.17612C115.899 3.17612 115.528 3.29871 115.231 3.54388C114.933 3.78906 114.744 4.12338 114.662 4.54687Z" fill="#E16EFF"/>
  <path d="M123.149 3.38786H121.767V6.06249C121.767 6.2928 121.819 6.45997 121.923 6.56398C122.027 6.66057 122.179 6.71629 122.38 6.73115C122.588 6.73857 122.844 6.73486 123.149 6.72V7.801C122.227 7.91244 121.566 7.83443 121.165 7.56697C120.764 7.29207 120.563 6.79058 120.563 6.06249V3.38786H119.537V2.22886H120.563V1.02527L121.767 0.668657V2.22886H123.149V3.38786Z" fill="#E16EFF"/>
  <path d="M128.426 2.22886H129.63V7.801H128.426V6.99861C127.973 7.63012 127.322 7.94587 126.475 7.94587C125.71 7.94587 125.056 7.66355 124.514 7.09891C123.971 6.52683 123.7 5.83217 123.7 5.01493C123.7 4.19025 123.971 3.49559 124.514 2.93095C125.056 2.3663 125.71 2.08398 126.475 2.08398C127.322 2.08398 127.973 2.39602 128.426 3.0201V2.22886ZM125.405 6.29652C125.74 6.63085 126.159 6.79801 126.665 6.79801C127.17 6.79801 127.59 6.63085 127.924 6.29652C128.259 5.95476 128.426 5.52756 128.426 5.01493C128.426 4.50229 128.259 4.07881 127.924 3.74448C127.59 3.40272 127.17 3.23184 126.665 3.23184C126.159 3.23184 125.74 3.40272 125.405 3.74448C125.071 4.07881 124.904 4.50229 124.904 5.01493C124.904 5.52756 125.071 5.95476 125.405 6.29652Z" fill="#E16EFF"/>
  <defs>
    <linearGradient id="paint0_linear_1143_12331" x1="0.0620042" y1="3.20789" x2="39.7158" y2="29.3752" gradientUnits="userSpaceOnUse">
    <stop offset="0.053951" stop-color="#6D5CFF"/>
    <stop offset="0.559189" stop-color="#E86EFF"/>
    <stop offset="0.923794" stop-color="#FFD66E"/>
    </linearGradient>
      <linearGradient id="paint1_linear_1143_12331" x1="0.0620042" y1="3.20789" x2="39.7158" y2="29.3752" gradientUnits="userSpaceOnUse">
      <stop offset="0.053951" stop-color="#6D5CFF"/>
      <stop offset="0.559189" stop-color="#E86EFF"/>
      <stop offset="0.923794" stop-color="#FFD66E"/>
    </linearGradient>
  </defs>
</svg>
