<svg width="24" height="24" viewBox="0 0 24 24" fill="none" xmlns="http://www.w3.org/2000/svg">
  <path d="M12 24C18.6274 24 24 18.6274 24 12C24 5.37258 18.6274 0 12 0C5.37258 0 0 5.37258 0 12C0 18.6274 5.37258 24 12 24Z" fill="#FF0420"/>
  <path fill-rule="evenodd" clip-rule="evenodd" d="M6.74611 14.6851C7.20244 15.0213 7.78785 15.1895 8.50238 15.1895C9.36705 15.1895 10.0575 14.9883 10.5739 14.586C11.0903 14.1777 11.4536 13.5623 11.6637 12.7396C11.7898 12.2353 11.8979 11.7159 11.9879 11.1815C12.018 10.9894 12.033 10.8302 12.033 10.7042C12.033 10.2839 11.9279 9.92358 11.7178 9.62338C11.5076 9.31714 11.2194 9.08895 10.8531 8.93886C10.4868 8.78276 10.0726 8.70471 9.61022 8.70471C7.91097 8.70471 6.85718 9.53031 6.44889 11.1815C6.30479 11.7879 6.19372 12.3074 6.11563 12.7396C6.08563 12.9318 6.0706 13.0939 6.0706 13.226C6.0706 13.8565 6.29577 14.3428 6.74611 14.6851ZM9.48412 13.5953C9.24993 13.7934 8.96476 13.8925 8.62847 13.8925C8.05209 13.8925 7.76385 13.6163 7.76385 13.0639C7.76385 12.9318 7.77585 12.8057 7.7999 12.6856C7.90795 12.1032 8.01604 11.6108 8.12414 11.2085C8.22619 10.8002 8.39433 10.497 8.62847 10.2988C8.86867 10.1007 9.15686 10.0016 9.49315 10.0016C10.0635 10.0016 10.3487 10.2748 10.3487 10.8212C10.3487 10.9534 10.3367 11.0824 10.3127 11.2085C10.2407 11.6288 10.1356 12.1212 9.99748 12.6856C9.89543 13.0939 9.72431 13.3971 9.48412 13.5953ZM12.2934 15.0362C12.3294 15.0783 12.3805 15.0993 12.4465 15.0993H13.6715C13.7315 15.0993 13.7885 15.0783 13.8426 15.0362C13.8966 14.9942 13.9296 14.9402 13.9416 14.8741L14.3559 12.9017H15.5718C16.3584 12.9017 16.9769 12.7365 17.4272 12.4063C17.8836 12.0761 18.1868 11.5657 18.3369 10.8751C18.3729 10.713 18.3909 10.5569 18.3909 10.4068C18.3909 9.88442 18.1868 9.48516 17.7784 9.20892C17.3761 8.93272 16.8418 8.79463 16.1753 8.79463H13.7795C13.7195 8.79463 13.6624 8.81565 13.6084 8.85765C13.5543 8.8997 13.5213 8.95375 13.5093 9.0198L12.2664 14.8741C12.2544 14.9342 12.2634 14.9882 12.2934 15.0362ZM16.2924 11.4516C16.1062 11.5897 15.887 11.6587 15.6349 11.6587H14.5991L14.9413 10.0466H16.0222C16.2684 10.0466 16.4424 10.0946 16.5445 10.1907C16.6466 10.2807 16.6977 10.4128 16.6977 10.5869C16.6977 10.665 16.6886 10.755 16.6706 10.8571C16.6106 11.1153 16.4845 11.3135 16.2924 11.4516Z" fill="white"/>
</svg>
