<svg width="24" height="24" viewBox="0 0 24 24" fill="none" xmlns="http://www.w3.org/2000/svg">
  <path d="M12 24C18.6274 24 24 18.6274 24 12C24 5.37258 18.6274 0 12 0C5.37258 0 0 5.37258 0 12C0 18.6274 5.37258 24 12 24Z" fill="#FF0420"/>
  <path fill-rule="evenodd" clip-rule="evenodd" d="M6.7463 14.6851C7.20264 15.0213 7.78805 15.1895 8.50258 15.1895C9.36725 15.1895 10.0577 14.9883 10.5741 14.586C11.0905 14.1777 11.4538 13.5623 11.6639 12.7396C11.79 12.2353 11.8981 11.7159 11.9881 11.1815C12.0182 10.9894 12.0332 10.8302 12.0332 10.7042C12.0332 10.2839 11.9281 9.92358 11.718 9.62338C11.5078 9.31714 11.2196 9.08895 10.8533 8.93886C10.487 8.78276 10.0728 8.70471 9.61042 8.70471C7.91117 8.70471 6.85738 9.53031 6.44909 11.1815C6.30499 11.7879 6.19392 12.3074 6.11582 12.7396C6.08582 12.9318 6.0708 13.0939 6.0708 13.226C6.0708 13.8565 6.29597 14.3428 6.7463 14.6851ZM9.48432 13.5953C9.25013 13.7934 8.96496 13.8925 8.62867 13.8925C8.05229 13.8925 7.76405 13.6163 7.76405 13.0639C7.76405 12.9318 7.77605 12.8057 7.8001 12.6856C7.90814 12.1032 8.01624 11.6108 8.12434 11.2085C8.22638 10.8002 8.39453 10.497 8.62867 10.2988C8.86886 10.1007 9.15706 10.0016 9.49334 10.0016C10.0637 10.0016 10.3489 10.2748 10.3489 10.8212C10.3489 10.9534 10.3369 11.0824 10.3129 11.2085C10.2409 11.6288 10.1358 12.1212 9.99768 12.6856C9.89563 13.0939 9.72451 13.3971 9.48432 13.5953ZM12.2936 15.0362C12.3296 15.0783 12.3807 15.0993 12.4467 15.0993H13.6717C13.7317 15.0993 13.7887 15.0783 13.8428 15.0362C13.8968 14.9942 13.9298 14.9402 13.9418 14.8741L14.3561 12.9017H15.572C16.3586 12.9017 16.9771 12.7365 17.4274 12.4063C17.8838 12.0761 18.187 11.5657 18.3371 10.8751C18.3731 10.713 18.3911 10.5569 18.3911 10.4068C18.3911 9.88442 18.187 9.48516 17.7786 9.20892C17.3763 8.93272 16.842 8.79463 16.1755 8.79463H13.7797C13.7197 8.79463 13.6626 8.81565 13.6086 8.85765C13.5545 8.8997 13.5215 8.95375 13.5095 9.0198L12.2666 14.8741C12.2546 14.9342 12.2636 14.9882 12.2936 15.0362ZM16.2926 11.4516C16.1064 11.5897 15.8872 11.6587 15.6351 11.6587H14.5993L14.9415 10.0466H16.0224C16.2686 10.0466 16.4426 10.0946 16.5447 10.1907C16.6468 10.2807 16.6979 10.4128 16.6979 10.5869C16.6979 10.665 16.6888 10.755 16.6708 10.8571C16.6108 11.1153 16.4847 11.3135 16.2926 11.4516Z" fill="white"/>
</svg>
