<svg width="24" height="24" viewBox="0 0 24 24" fill="none" xmlns="http://www.w3.org/2000/svg">
	<rect width="24" height="24" rx="12" fill="#8247E5"/>
	<path d="M16.1149 9.30287C15.8225 9.13577 15.4465 9.13577 15.1123 9.30287L12.7728 10.6815L11.1854 11.5587L8.88773 12.9373C8.5953 13.1044 8.21932 13.1044 7.88512 12.9373L6.08877 11.8512C5.79634 11.6841 5.58747 11.3499 5.58747 10.9739V8.88512C5.58747 8.55091 5.75457 8.21671 6.08877 8.00783L7.88512 6.96345C8.17755 6.79634 8.55352 6.79634 8.88773 6.96345L10.6841 8.04961C10.9765 8.21671 11.1854 8.55091 11.1854 8.92689V10.3055L12.7728 9.38642V7.96606C12.7728 7.63185 12.6057 7.29765 12.2715 7.08877L8.9295 5.12533C8.63708 4.95822 8.2611 4.95822 7.92689 5.12533L4.50131 7.13055C4.1671 7.29765 4 7.63185 4 7.96606V11.893C4 12.2272 4.1671 12.5614 4.50131 12.7702L7.88512 14.7337C8.17755 14.9008 8.55352 14.9008 8.88773 14.7337L11.1854 13.3969L12.7728 12.4778L15.0705 11.141C15.3629 10.9739 15.7389 10.9739 16.0731 11.141L17.8695 12.1854C18.1619 12.3525 18.3708 12.6867 18.3708 13.0627V15.1514C18.3708 15.4856 18.2037 15.8198 17.8695 16.0287L16.1149 17.0731C15.8225 17.2402 15.4465 17.2402 15.1123 17.0731L13.3159 16.0287C13.0235 15.8616 12.8146 15.5274 12.8146 15.1514V13.8146L11.2272 14.7337V16.1123C11.2272 16.4465 11.3943 16.7807 11.7285 16.9896L15.1123 18.953C15.4047 19.1201 15.7807 19.1201 16.1149 18.953L19.4987 16.9896C19.7911 16.8225 20 16.4883 20 16.1123V12.1436C20 11.8094 19.8329 11.4752 19.4987 11.2663L16.1149 9.30287Z" fill="white"/>
</svg>
