<svg width="11" height="11" viewBox="0 0 11 11" fill="none" xmlns="http://www.w3.org/2000/svg">
<path fill-rule="evenodd" clip-rule="evenodd" d="M10.4155 1.8531C10.806 1.46258 10.806 0.829414 10.4155 0.438889C10.025 0.048365 9.3918 0.048365 9.00128 0.438889L5.35422 4.08595L1.70716 0.438889C1.31663 0.048365 0.683467 0.048365 0.292943 0.438889C-0.0975814 0.829414 -0.0975814 1.46258 0.292943 1.8531L3.94 5.50016L0.292893 9.14727C-0.0976308 9.5378 -0.0976312 10.171 0.292893 10.5615C0.683417 10.952 1.31658 10.952 1.70711 10.5615L5.35422 6.91438L9.00133 10.5615C9.39185 10.952 10.025 10.952 10.4155 10.5615C10.8061 10.171 10.8061 9.5378 10.4155 9.14727L6.76843 5.50016L10.4155 1.8531Z" fill="#EF102A"/>
</svg>
