<svg width="18" height="18" viewBox="0 0 18 18" fill="none" xmlns="http://www.w3.org/2000/svg">
  <path d="M16.9353 2.672C16.7954 2.60899 16.6403 2.58755 16.4885 2.61025C16.3367 2.63294 16.1947 2.69881 16.0793 2.8L14.9913 3.768C14.2543 2.90019 13.3374 2.20311 12.3041 1.72513C11.2707 1.24715 10.1458 0.999718 9.00729 1C7.5402 0.998644 6.10099 1.40074 4.84705 2.16231C3.59311 2.92388 2.57274 4.01561 1.89752 5.31808C1.22231 6.62056 0.918258 8.08363 1.01862 9.54728C1.11899 11.0109 1.6199 12.4188 2.46658 13.6169C3.31327 14.815 4.47311 15.7573 5.81927 16.3405C7.16542 16.9238 8.64605 17.1257 10.0992 16.9241C11.5524 16.7225 12.9222 16.1252 14.0587 15.1975C15.1952 14.2697 16.0547 13.0474 16.5433 11.664C16.6133 11.4635 16.6008 11.2434 16.5085 11.0521C16.4163 10.8608 16.2518 10.714 16.0513 10.644C15.8508 10.574 15.6307 10.5865 15.4394 10.6788C15.2481 10.771 15.1013 10.9355 15.0313 11.136C14.6396 12.2423 13.9513 13.2196 13.0415 13.961C12.1318 14.7025 11.0358 15.1795 9.87319 15.3399C8.71062 15.5003 7.52631 15.338 6.44978 14.8707C5.37325 14.4034 4.44594 13.649 3.76926 12.6902C3.09258 11.7313 2.69257 10.6049 2.61299 9.43398C2.53341 8.2631 2.77732 7.09287 3.31803 6.05127C3.85875 5.00967 4.67546 4.1368 5.67886 3.52811C6.68226 2.91942 7.83371 2.59835 9.00729 2.6C9.92091 2.59974 10.8236 2.79857 11.6526 3.18266C12.4815 3.56674 13.2168 4.12685 13.8073 4.824L12.4793 6C12.3569 6.10825 12.2706 6.25137 12.232 6.41012C12.1934 6.56887 12.2043 6.73564 12.2633 6.888C12.3213 7.03835 12.4234 7.16767 12.5561 7.25903C12.6889 7.35039 12.8461 7.39953 13.0073 7.4H16.6073C16.8195 7.4 17.0229 7.31572 17.173 7.16569C17.323 7.01566 17.4073 6.81218 17.4073 6.6V3.4C17.407 3.24611 17.3623 3.09558 17.2786 2.96646C17.1948 2.83734 17.0757 2.7351 16.9353 2.672Z" fill="#2A1B5B"/>
</svg>
