<svg width="18" height="18" viewBox="0 0 18 18" fill="none" xmlns="http://www.w3.org/2000/svg">
  <path d="M13.9316 17H4.08545C3.26941 17 2.48678 16.6759 1.90975 16.0991C1.33272 15.5222 1.00854 14.7399 1.00854 13.9241V5.3117C1.00854 5.14855 1.07338 4.99208 1.18879 4.87671C1.30419 4.76135 1.46072 4.69653 1.62393 4.69653H13.9316C14.7476 4.69653 15.5302 5.0206 16.1073 5.59743C16.6843 6.17427 17.0085 6.95662 17.0085 7.77239V13.9241C17.0085 14.7399 16.6843 15.5222 16.1073 16.0991C15.5302 16.6759 14.7476 17 13.9316 17ZM2.23931 5.92688V13.9241C2.23931 14.4136 2.43381 14.883 2.78003 15.2291C3.12625 15.5752 3.59583 15.7696 4.08545 15.7696H13.9316C14.4212 15.7696 14.8908 15.5752 15.237 15.2291C15.5832 14.883 15.7777 14.4136 15.7777 13.9241V7.77239C15.7777 7.28293 15.5832 6.81352 15.237 6.46741C14.8908 6.12131 14.4212 5.92688 13.9316 5.92688H2.23931Z" fill="white" stroke="white" stroke-width="0.5"/>
  <path d="M15.1624 5.92691C14.9992 5.92691 14.8427 5.8621 14.7273 5.74673C14.6119 5.63136 14.547 5.47489 14.547 5.31174V3.62002C14.5588 3.40451 14.5218 3.18913 14.4387 2.98994C14.3555 2.79075 14.2285 2.6129 14.067 2.46965C13.9219 2.36098 13.754 2.28678 13.5759 2.25267C13.3978 2.21856 13.2143 2.22544 13.0393 2.27279L2.71938 4.61659C2.58056 4.64785 2.45686 4.72622 2.36935 4.83839C2.28183 4.95055 2.2359 5.08956 2.23938 5.23177C2.23938 5.39492 2.17454 5.55139 2.05914 5.66676C1.94373 5.78212 1.7872 5.84694 1.62399 5.84694C1.46079 5.84694 1.30426 5.78212 1.18885 5.66676C1.07345 5.55139 1.00861 5.39492 1.00861 5.23177C1.005 4.81123 1.14518 4.40207 1.40593 4.07205C1.66669 3.74202 2.03238 3.51092 2.44245 3.41701L12.7686 1.07321C13.1237 0.983437 13.4947 0.976126 13.8531 1.05183C14.2115 1.12754 14.5478 1.28426 14.8362 1.50998C15.1412 1.76874 15.3842 2.0927 15.5472 2.45791C15.7101 2.82313 15.7889 3.22027 15.7778 3.62002V5.31174C15.7778 5.47489 15.7129 5.63136 15.5975 5.74673C15.4821 5.8621 15.3256 5.92691 15.1624 5.92691Z" fill="white" stroke="white" stroke-width="0.5"/>
  <path d="M16.3932 13.3091H12.0856C11.4327 13.3091 10.8066 13.0498 10.345 12.5883C9.88336 12.1269 9.62402 11.501 9.62402 10.8484C9.62402 10.1958 9.88336 9.56988 10.345 9.10841C10.8066 8.64695 11.4327 8.3877 12.0856 8.3877H16.3932C16.5564 8.3877 16.713 8.45251 16.8284 8.56788C16.9438 8.68324 17.0086 8.83971 17.0086 9.00287V12.6939C17.0086 12.8571 16.9438 13.0135 16.8284 13.1289C16.713 13.2443 16.5564 13.3091 16.3932 13.3091ZM12.0856 9.61804C11.7591 9.61804 11.4461 9.74766 11.2153 9.9784C10.9845 10.2091 10.8548 10.5221 10.8548 10.8484C10.8548 11.1747 10.9845 11.4876 11.2153 11.7184C11.4461 11.9491 11.7591 12.0787 12.0856 12.0787H15.7778V9.61804H12.0856Z" fill="white" stroke="white" stroke-width="0.5"/>
</svg>
