<svg width="22" height="21" viewBox="0 0 22 21" fill="none" xmlns="http://www.w3.org/2000/svg">
  <path fill-rule="evenodd" clip-rule="evenodd" d="M9.06497 2.1556C9.89511 0.614801 12.1049 0.614801 12.935 2.1556L20.7374 16.6459C20.9176 16.9807 21.0079 17.3565 20.9995 17.7366C20.991 18.1166 20.8841 18.488 20.6892 18.8145C20.4942 19.1409 20.2179 19.4111 19.8873 19.5988C19.5567 19.7865 19.183 19.8852 18.8028 19.8853H3.19717C2.81698 19.8852 2.44331 19.7865 2.11268 19.5988C1.78205 19.4111 1.50577 19.1409 1.31084 18.8145C1.11591 18.488 1.00899 18.1166 1.00054 17.7366C0.992092 17.3565 1.0824 16.9807 1.26263 16.6459L9.06497 2.1556ZM10.3547 2.85048C10.6317 2.33677 11.3683 2.33661 11.6452 2.85032L19.4474 17.3404C19.5075 17.452 19.5376 17.5773 19.5348 17.704C19.532 17.8307 19.4963 17.9545 19.4313 18.0633C19.3664 18.1721 19.2743 18.2622 19.1641 18.3247C19.0539 18.3873 18.9294 18.4202 18.8027 18.4202L1.8125 18.3247C1.27716 17.9873 1.54632 17.9982 1.94306 18.0882C2.17044 18.1398 2.43971 18.2174 2.62346 18.2704L2.62348 18.2704C2.76876 18.3123 2.86057 18.3387 2.83593 18.3247C2.72572 18.2622 2.63363 18.1721 2.56865 18.0633C2.50368 17.9545 2.46804 17.8307 2.46522 17.704C2.4624 17.5773 2.49251 17.452 2.55258 17.3404L10.3547 2.85048ZM11 16.9094C10.8189 16.9094 10.6419 16.8557 10.4913 16.7551C10.3407 16.6544 10.2233 16.5114 10.154 16.3441C10.0847 16.1768 10.0666 15.9927 10.1019 15.8151C10.1373 15.6375 10.2245 15.4743 10.3525 15.3463C10.4806 15.2182 10.6437 15.131 10.8214 15.0957C10.999 15.0603 11.1831 15.0785 11.3504 15.1478C11.5177 15.2171 11.6607 15.3344 11.7613 15.485C11.8619 15.6356 11.9156 15.8126 11.9156 15.9937C11.9156 16.2366 11.8192 16.4695 11.6475 16.6412C11.4757 16.8129 11.2428 16.9094 11 16.9094ZM10.2799 7.68923L10.2797 7.68449C10.2762 7.58829 10.292 7.49236 10.3261 7.40237C10.3603 7.31237 10.4121 7.23013 10.4786 7.1605C10.5451 7.09087 10.6248 7.03527 10.7131 6.99697C10.8015 6.95867 10.8965 6.93845 10.9928 6.93751C11.0908 6.93655 11.1879 6.95559 11.2783 6.99344C11.3687 7.0313 11.4504 7.08719 11.5184 7.15769C11.5864 7.2282 11.6394 7.31183 11.674 7.40348C11.7086 7.49513 11.7242 7.59289 11.7197 7.69076L11.4573 13.2747C11.4459 13.5189 11.2445 13.711 11 13.711C10.7556 13.711 10.5542 13.5189 10.5427 13.2747L10.2799 7.68923ZM10.7372 7.66772L10.7372 7.66776L11 13.2532L11 13.2531L10.7372 7.66776C10.736 7.63268 10.7417 7.5977 10.7542 7.56488C10.7666 7.53206 10.7855 7.50207 10.8098 7.47668C10.834 7.45128 10.8631 7.43101 10.8953 7.41704C10.9275 7.40307 10.9622 7.3957 10.9973 7.39536C11.033 7.39501 11.0684 7.40195 11.1014 7.41575C11.1344 7.42956 11.1641 7.44994 11.189 7.47565C11.2138 7.50136 11.2331 7.53186 11.2457 7.56529C11.2502 7.57729 11.2539 7.58958 11.2566 7.60206C11.2539 7.58957 11.2502 7.57726 11.2457 7.56524C11.2331 7.53182 11.2138 7.50132 11.1889 7.47561C11.1641 7.4499 11.1343 7.42952 11.1014 7.41571C11.0684 7.4019 11.033 7.39496 10.9973 7.39531C10.9622 7.39565 10.9275 7.40303 10.8953 7.41699C10.8631 7.43096 10.834 7.45124 10.8098 7.47663C10.7855 7.50202 10.7666 7.53201 10.7542 7.56483C10.7417 7.59765 10.736 7.63264 10.7372 7.66772Z" fill="#6D6489"/>
  <path d="M12.935 2.1556L13.1992 2.01337L13.1991 2.0133L12.935 2.1556ZM9.06497 2.1556L8.80086 2.0133L8.80083 2.01337L9.06497 2.1556ZM20.7374 16.6459L21.0015 16.5037L21.0015 16.5037L20.7374 16.6459ZM20.9995 17.7366L20.6995 17.7299V17.7299L20.9995 17.7366ZM20.6892 18.8145L20.4316 18.6606L20.4316 18.6606L20.6892 18.8145ZM19.8873 19.5988L20.0354 19.8597L19.8873 19.5988ZM18.8028 19.8853V20.1853H18.8029L18.8028 19.8853ZM3.19717 19.8853L3.19711 20.1853H3.19717V19.8853ZM2.11268 19.5988L1.96458 19.8597H1.96458L2.11268 19.5988ZM1.31084 18.8145L1.56841 18.6606L1.56841 18.6606L1.31084 18.8145ZM1.00054 17.7366L1.30047 17.7299L1.00054 17.7366ZM1.26263 16.6459L0.998485 16.5037L0.99848 16.5037L1.26263 16.6459ZM11.6452 2.85032L11.9093 2.70809L11.9093 2.70797L11.6452 2.85032ZM10.3547 2.85048L10.0907 2.70813L10.0906 2.70825L10.3547 2.85048ZM19.4474 17.3404L19.7116 17.1982L19.7116 17.1982L19.4474 17.3404ZM19.4313 18.0633L19.1738 17.9095V17.9095L19.4313 18.0633ZM19.1641 18.3247L19.3122 18.5856H19.3122L19.1641 18.3247ZM18.8027 18.4202L18.801 18.7202H18.8028L18.8027 18.4202ZM1.8125 18.3247L1.65254 18.5785C1.69995 18.6084 1.75478 18.6244 1.81081 18.6247L1.8125 18.3247ZM1.94306 18.0882L1.87667 18.3808H1.87667L1.94306 18.0882ZM2.62346 18.2704L2.73488 17.9918C2.7256 17.9881 2.71615 17.9849 2.70654 17.9821L2.62346 18.2704ZM2.62348 18.2704L2.51206 18.5489C2.52134 18.5527 2.5308 18.5559 2.54041 18.5587L2.62348 18.2704ZM2.83593 18.3247L2.98404 18.0638L2.98404 18.0638L2.83593 18.3247ZM2.56865 18.0633L2.31109 18.2171L2.31109 18.2171L2.56865 18.0633ZM2.46522 17.704L2.16529 17.7107L2.46522 17.704ZM2.55258 17.3404L2.28844 17.1982L2.28843 17.1982L2.55258 17.3404ZM10.1019 15.8151L10.3962 15.8736V15.8736L10.1019 15.8151ZM10.3525 15.3463L10.1404 15.1341H10.1404L10.3525 15.3463ZM10.8214 15.0957L10.7628 14.8014L10.7628 14.8014L10.8214 15.0957ZM11.3504 15.1478L11.2356 15.4249H11.2356L11.3504 15.1478ZM11.7613 15.485L11.5119 15.6517L11.5119 15.6517L11.7613 15.485ZM11.6475 16.6412L11.8596 16.8533L11.8596 16.8533L11.6475 16.6412ZM10.2797 7.68449L9.97992 7.69548L9.97998 7.69702L10.2797 7.68449ZM10.2799 7.68923L9.98018 7.70176L9.98025 7.70333L10.2799 7.68923ZM10.4786 7.1605L10.6956 7.36765L10.6956 7.36765L10.4786 7.1605ZM10.7131 6.99697L10.5938 6.72173L10.5938 6.72174L10.7131 6.99697ZM10.9928 6.93751L10.9899 6.63752H10.9899L10.9928 6.93751ZM11.2783 6.99344L11.3942 6.71675L11.3942 6.71675L11.2783 6.99344ZM11.5184 7.15769L11.3025 7.36601L11.3025 7.36601L11.5184 7.15769ZM11.674 7.40348L11.3933 7.50948L11.3933 7.50948L11.674 7.40348ZM11.7197 7.69076L12.0194 7.70485L12.0194 7.70437L11.7197 7.69076ZM11.4573 13.2747L11.1577 13.2606L11.4573 13.2747ZM10.5427 13.2747L10.243 13.2888V13.2888L10.5427 13.2747ZM10.7372 7.66772L10.4374 7.67871C10.4381 7.69558 10.4401 7.71237 10.4435 7.7289L10.7372 7.66772ZM11 13.2532L10.7004 13.2673C10.7079 13.4273 10.8398 13.5532 11 13.5532C11.1602 13.5532 11.2922 13.4273 11.2997 13.2673L11 13.2532ZM11 13.2531L11.2997 13.2672C11.3001 13.2578 11.3001 13.2484 11.2997 13.239L11 13.2531ZM10.7542 7.56488L11.0346 7.67134L11.0347 7.67134L10.7542 7.56488ZM10.8953 7.41704L10.7759 7.14181L10.7759 7.14181L10.8953 7.41704ZM10.9973 7.39536L10.9944 7.09537H10.9944L10.9973 7.39536ZM11.1014 7.41575L11.2173 7.13906L11.2173 7.13906L11.1014 7.41575ZM11.189 7.47565L11.4048 7.26733L11.4048 7.26733L11.189 7.47565ZM11.2457 7.56529L11.5263 7.45929L11.5263 7.45929L11.2457 7.56529ZM11.2566 7.60206L10.9635 7.66608C10.9989 7.82794 11.1587 7.9305 11.3206 7.89515C11.4824 7.85981 11.585 7.69996 11.5497 7.53809L11.2566 7.60206ZM11.2457 7.56524L10.965 7.67124L10.965 7.67124L11.2457 7.56524ZM11.1889 7.47561L10.9731 7.68393L10.9731 7.68393L11.1889 7.47561ZM11.1014 7.41571L11.2173 7.13901L11.2173 7.13901L11.1014 7.41571ZM10.9973 7.39531L10.9944 7.09532H10.9943L10.9973 7.39531ZM10.8953 7.41699L10.7759 7.14176L10.7759 7.14176L10.8953 7.41699ZM10.8098 7.47663L11.0268 7.68378L11.0268 7.68378L10.8098 7.47663ZM10.7542 7.56483L10.4737 7.45837L10.4737 7.45838L10.7542 7.56483ZM1.54986 18.1798C1.46979 18.3248 1.52246 18.5073 1.66752 18.5874C1.81257 18.6674 1.99507 18.6148 2.07514 18.4697L1.54986 18.1798ZM2.2057 18.2332C2.28577 18.0882 2.2331 17.9057 2.08805 17.8256C1.94299 17.7455 1.76049 17.7982 1.68042 17.9432L2.2057 18.2332ZM13.1991 2.0133C12.2557 0.262232 9.74429 0.262232 8.80087 2.0133L9.32908 2.29789C10.0459 0.96737 11.9541 0.96737 12.6709 2.29789L13.1991 2.0133ZM21.0015 16.5037L13.1992 2.01337L12.6709 2.29782L20.4732 16.7881L21.0015 16.5037ZM21.2994 17.7432C21.309 17.3112 21.2063 16.8841 21.0015 16.5037L20.4732 16.7881C20.6288 17.0772 20.7068 17.4017 20.6995 17.7299L21.2994 17.7432ZM20.9467 18.9683C21.1683 18.5973 21.2898 18.1752 21.2994 17.7432L20.6995 17.7299C20.6922 18.0581 20.5999 18.3788 20.4316 18.6606L20.9467 18.9683ZM20.0354 19.8597C20.4112 19.6464 20.7252 19.3392 20.9467 18.9683L20.4316 18.6606C20.2633 18.9425 20.0247 19.1758 19.7392 19.3379L20.0354 19.8597ZM18.8029 20.1853C19.235 20.1852 19.6597 20.073 20.0354 19.8597L19.7392 19.3379C19.4537 19.5 19.1311 19.5852 18.8028 19.5853L18.8029 20.1853ZM3.19717 20.1853H18.8028V19.5853H3.19717V20.1853ZM1.96458 19.8597C2.34035 20.073 2.76502 20.1852 3.19711 20.1853L3.19722 19.5853C2.86893 19.5852 2.54628 19.5 2.26078 19.3379L1.96458 19.8597ZM1.05328 18.9683C1.27482 19.3392 1.58882 19.6464 1.96458 19.8597L2.26079 19.3379C1.97529 19.1758 1.73673 18.9425 1.56841 18.6606L1.05328 18.9683ZM0.700617 17.7432C0.710222 18.1752 0.831733 18.5973 1.05328 18.9683L1.56841 18.6606C1.40009 18.3788 1.30777 18.0581 1.30047 17.7299L0.700617 17.7432ZM0.99848 16.5037C0.793643 16.8842 0.691013 17.3112 0.700617 17.7432L1.30047 17.7299C1.29317 17.4017 1.37115 17.0772 1.52677 16.7881L0.99848 16.5037ZM8.80083 2.01337L0.998485 16.5037L1.52677 16.7882L9.32911 2.29782L8.80083 2.01337ZM11.9093 2.70797C11.519 1.98395 10.4808 1.98434 10.0907 2.70813L10.6188 2.99283C10.7825 2.6892 11.2176 2.68928 11.3811 2.99267L11.9093 2.70797ZM19.7116 17.1982L11.9093 2.70809L11.381 2.99255L19.1833 17.4827L19.7116 17.1982ZM19.8347 17.7107C19.8387 17.5321 19.7962 17.3555 19.7116 17.1982L19.1833 17.4827C19.2187 17.5485 19.2365 17.6225 19.2349 17.6973L19.8347 17.7107ZM19.6889 18.2171C19.7805 18.0637 19.8307 17.8892 19.8347 17.7107L19.2349 17.6973C19.2332 17.7721 19.2121 17.8452 19.1738 17.9095L19.6889 18.2171ZM19.3122 18.5856C19.4675 18.4974 19.5973 18.3705 19.6889 18.2171L19.1738 17.9095C19.1354 17.9737 19.081 18.0269 19.016 18.0638L19.3122 18.5856ZM18.8028 18.7202C18.9814 18.7202 19.1569 18.6738 19.3122 18.5856L19.016 18.0638C18.9509 18.1008 18.8774 18.1202 18.8026 18.1202L18.8028 18.7202ZM1.81081 18.6247L18.801 18.7202L18.8044 18.1202L1.81419 18.0247L1.81081 18.6247ZM2.00945 17.7957C1.90647 17.7723 1.80305 17.752 1.71449 17.7417C1.67062 17.7367 1.62246 17.7331 1.57578 17.7347C1.5398 17.736 1.45895 17.7408 1.38077 17.7849C1.33567 17.8104 1.27855 17.8564 1.24297 17.9331C1.20649 18.0118 1.20824 18.0891 1.2221 18.1474C1.24534 18.245 1.30732 18.3123 1.33635 18.3421C1.40686 18.4145 1.51672 18.4929 1.65254 18.5785L1.97246 18.0709C1.84061 17.9878 1.78336 17.9411 1.76618 17.9235C1.76338 17.9206 1.76752 17.9243 1.77425 17.9343C1.78006 17.9429 1.79627 17.9684 1.80578 18.0084C1.81626 18.0524 1.81891 18.1174 1.7873 18.1855C1.7566 18.2517 1.70834 18.289 1.67573 18.3074C1.6448 18.3249 1.61944 18.3306 1.61046 18.3324C1.6 18.3344 1.59458 18.3344 1.59672 18.3343C1.6015 18.3342 1.61673 18.3344 1.64552 18.3378C1.70228 18.3443 1.78129 18.3591 1.87667 18.3808L2.00945 17.7957ZM2.70654 17.9821C2.52462 17.9297 2.24678 17.8495 2.00945 17.7957L1.87667 18.3808C2.09409 18.4301 2.35481 18.5052 2.54039 18.5587L2.70654 17.9821ZM2.7349 17.9919L2.73488 17.9918L2.51205 18.5489L2.51206 18.5489L2.7349 17.9919ZM2.68783 18.5856C2.68593 18.5846 2.66501 18.5731 2.64175 18.5528C2.63316 18.5452 2.59848 18.515 2.57226 18.4633C2.54017 18.4 2.5064 18.2619 2.60767 18.1381C2.67762 18.0527 2.76824 18.0366 2.78273 18.0338C2.81148 18.0283 2.83436 18.0284 2.8433 18.0286C2.86303 18.0289 2.87765 18.0313 2.88026 18.0317C2.89074 18.0333 2.89203 18.0343 2.87043 18.0286C2.83623 18.0195 2.78079 18.0035 2.70655 17.9821L2.54041 18.5587C2.61145 18.5791 2.67455 18.5973 2.71642 18.6085C2.73286 18.6128 2.76155 18.6204 2.78686 18.6244C2.79318 18.6254 2.81072 18.6281 2.83255 18.6285C2.84254 18.6286 2.86627 18.6287 2.89566 18.6231C2.91079 18.6202 3.00184 18.6039 3.072 18.5181C3.17349 18.3941 3.13973 18.2557 3.10743 18.192C3.081 18.1398 3.04589 18.1091 3.03665 18.101C3.0121 18.0796 2.98902 18.0667 2.98404 18.0638L2.68783 18.5856ZM2.31109 18.2171C2.40268 18.3705 2.53249 18.4974 2.68783 18.5856L2.98404 18.0638C2.91896 18.0269 2.86459 17.9737 2.82622 17.9095L2.31109 18.2171ZM2.16529 17.7107C2.16926 17.8892 2.2195 18.0637 2.31109 18.2171L2.82622 17.9095C2.78785 17.8452 2.76681 17.7721 2.76515 17.6973L2.16529 17.7107ZM2.28843 17.1982C2.20376 17.3555 2.16132 17.5321 2.16529 17.7107L2.76515 17.6973C2.76348 17.6225 2.78126 17.5485 2.81673 17.4827L2.28843 17.1982ZM10.0906 2.70825L2.28844 17.1982L2.81672 17.4827L10.6189 2.99271L10.0906 2.70825ZM10.3246 17.0045C10.5245 17.1381 10.7596 17.2094 11 17.2094V16.6094C10.8782 16.6094 10.7592 16.5733 10.658 16.5056L10.3246 17.0045ZM9.87688 16.4589C9.96889 16.6811 10.1247 16.8709 10.3246 17.0045L10.658 16.5056C10.5567 16.438 10.4778 16.3418 10.4312 16.2293L9.87688 16.4589ZM9.8077 15.7566C9.7608 15.9924 9.78487 16.2368 9.87688 16.4589L10.4312 16.2293C10.3846 16.1168 10.3724 15.993 10.3962 15.8736L9.8077 15.7566ZM10.1404 15.1341C9.97039 15.3041 9.85461 15.5208 9.8077 15.7566L10.3962 15.8736C10.4199 15.7542 10.4786 15.6445 10.5647 15.5584L10.1404 15.1341ZM10.7628 14.8014C10.527 14.8483 10.3104 14.9641 10.1404 15.1341L10.5647 15.5584C10.6508 15.4723 10.7605 15.4137 10.8799 15.3899L10.7628 14.8014ZM11.4652 14.8706C11.2431 14.7786 10.9986 14.7545 10.7628 14.8014L10.8799 15.3899C10.9993 15.3661 11.1231 15.3783 11.2356 15.4249L11.4652 14.8706ZM12.0108 15.3183C11.8772 15.1184 11.6873 14.9626 11.4652 14.8706L11.2356 15.4249C11.3481 15.4715 11.4442 15.5504 11.5119 15.6517L12.0108 15.3183ZM12.2156 15.9937C12.2156 15.7533 12.1443 15.5183 12.0108 15.3183L11.5119 15.6517C11.5795 15.7529 11.6156 15.872 11.6156 15.9937H12.2156ZM11.8596 16.8533C12.0876 16.6253 12.2156 16.3161 12.2156 15.9937H11.6156C11.6156 16.157 11.5508 16.3136 11.4353 16.4291L11.8596 16.8533ZM11 17.2094C11.3224 17.2094 11.6316 17.0813 11.8596 16.8533L11.4353 16.4291C11.3199 16.5445 11.1633 16.6094 11 16.6094V17.2094ZM9.97998 7.69702L9.98018 7.70176L10.5797 7.6767L10.5795 7.67196L9.97998 7.69702ZM10.0457 7.29591C9.99728 7.42336 9.97493 7.55923 9.97992 7.69548L10.5795 7.6735C10.5775 7.61735 10.5867 7.56136 10.6066 7.50883L10.0457 7.29591ZM10.2616 6.95335C10.1675 7.05197 10.094 7.16845 10.0457 7.29591L10.6066 7.50883C10.6266 7.4563 10.6568 7.40829 10.6956 7.36765L10.2616 6.95335ZM10.5938 6.72174C10.4687 6.77598 10.3558 6.85473 10.2616 6.95335L10.6956 7.36765C10.7344 7.32701 10.781 7.29455 10.8325 7.2722L10.5938 6.72174ZM10.9899 6.63752C10.8535 6.63886 10.7189 6.66749 10.5938 6.72173L10.8325 7.2722C10.8841 7.24984 10.9396 7.23804 10.9957 7.23749L10.9899 6.63752ZM11.3942 6.71675C11.2662 6.66312 11.1286 6.63617 10.9899 6.63752L10.9957 7.23749C11.0529 7.23694 11.1096 7.24805 11.1624 7.27014L11.3942 6.71675ZM11.7343 6.94937C11.6379 6.84952 11.5222 6.77037 11.3942 6.71675L11.1624 7.27014C11.2151 7.29224 11.2628 7.32486 11.3025 7.36601L11.7343 6.94937ZM11.9546 7.29749C11.9056 7.16768 11.8306 7.04923 11.7343 6.94937L11.3025 7.36601C11.3422 7.40716 11.3731 7.45598 11.3933 7.50948L11.9546 7.29749ZM12.0194 7.70437C12.0257 7.56574 12.0037 7.42729 11.9546 7.29749L11.3933 7.50948C11.4135 7.56298 11.4226 7.62003 11.42 7.67716L12.0194 7.70437ZM11.757 13.2887L12.0194 7.70485L11.42 7.67668L11.1577 13.2606L11.757 13.2887ZM11.0001 14.011C11.4048 14.011 11.738 13.693 11.757 13.2887L11.1577 13.2606C11.1537 13.3448 11.0843 13.411 11 13.411L11.0001 14.011ZM10.243 13.2888C10.2621 13.693 10.5954 14.011 11.0001 14.011L11 13.411C10.9158 13.411 10.8463 13.3448 10.8424 13.2606L10.243 13.2888ZM9.98025 7.70333L10.243 13.2888L10.8424 13.2606L10.5796 7.67513L9.98025 7.70333ZM11.0309 7.60658L11.0309 7.60653L10.4435 7.7289L10.4436 7.72895L11.0309 7.60658ZM11.2997 13.2391L11.0369 7.65366L10.4376 7.68186L10.7004 13.2673L11.2997 13.2391ZM10.7004 13.239L10.7004 13.2391L11.2997 13.2673L11.2997 13.2672L10.7004 13.239ZM10.4376 7.68186L10.7004 13.2672L11.2997 13.239L11.0369 7.65366L10.4376 7.68186ZM10.4737 7.45842C10.447 7.5287 10.4347 7.60362 10.4375 7.67876L11.037 7.65677C11.0372 7.66174 11.0364 7.6667 11.0346 7.67134L10.4737 7.45842ZM10.5928 7.26953C10.5409 7.3239 10.5004 7.38813 10.4737 7.45842L11.0347 7.67134C11.0329 7.67599 11.0302 7.68023 11.0268 7.68383L10.5928 7.26953ZM10.7759 7.14181C10.707 7.17172 10.6447 7.21514 10.5928 7.26953L11.0268 7.68383C11.0233 7.68742 11.0192 7.6903 11.0147 7.69227L10.7759 7.14181ZM10.9944 7.09537C10.9192 7.09611 10.8449 7.1119 10.7759 7.14181L11.0147 7.69227C11.0101 7.69425 11.0052 7.69529 11.0002 7.69534L10.9944 7.09537ZM11.2173 7.13906C11.1467 7.10949 11.0709 7.09463 10.9944 7.09537L11.0002 7.69534C10.9952 7.69539 10.9901 7.69441 10.9855 7.69245L11.2173 7.13906ZM11.4048 7.26733C11.3517 7.21227 11.2879 7.16862 11.2173 7.13906L10.9855 7.69245C10.9808 7.6905 10.9766 7.68761 10.9731 7.68398L11.4048 7.26733ZM11.5263 7.45929C11.4993 7.38771 11.458 7.3224 11.4048 7.26733L10.9731 7.68397C10.9696 7.68033 10.9668 7.67601 10.965 7.67128L11.5263 7.45929ZM11.5497 7.53804C11.5438 7.51131 11.5361 7.48499 11.5263 7.45929L10.965 7.67128C10.9644 7.66959 10.9639 7.66785 10.9635 7.66608L11.5497 7.53804ZM10.965 7.67124C10.9644 7.66954 10.9639 7.6678 10.9635 7.66603L11.5497 7.53809C11.5439 7.51134 11.5361 7.48498 11.5263 7.45924L10.965 7.67124ZM10.9731 7.68393C10.9696 7.68028 10.9668 7.67596 10.965 7.67124L11.5263 7.45925C11.4993 7.38767 11.458 7.32235 11.4048 7.26728L10.9731 7.68393ZM10.9855 7.69241C10.9808 7.69045 10.9766 7.68757 10.9731 7.68393L11.4048 7.26729C11.3517 7.21223 11.2879 7.16858 11.2173 7.13901L10.9855 7.69241ZM11.0002 7.6953C10.9952 7.69535 10.9901 7.69436 10.9855 7.69241L11.2173 7.13901C11.1467 7.10944 11.0709 7.09458 10.9944 7.09532L11.0002 7.6953ZM11.0147 7.69223C11.0101 7.6942 11.0052 7.69525 11.0002 7.6953L10.9943 7.09532C10.9192 7.09606 10.8449 7.11185 10.7759 7.14176L11.0147 7.69223ZM11.0268 7.68378C11.0233 7.68738 11.0192 7.69025 11.0147 7.69223L10.7759 7.14176C10.707 7.17167 10.6447 7.2151 10.5928 7.26948L11.0268 7.68378ZM11.0346 7.6713C11.0329 7.67594 11.0302 7.68018 11.0268 7.68378L10.5928 7.26948C10.5409 7.32386 10.5004 7.38809 10.4737 7.45837L11.0346 7.6713ZM11.037 7.65672C11.0372 7.6617 11.0364 7.66665 11.0346 7.67129L10.4737 7.45838C10.447 7.52866 10.4347 7.60357 10.4374 7.67871L11.037 7.65672ZM2.07514 18.4697L2.2057 18.2332L1.68042 17.9432L1.54986 18.1798L2.07514 18.4697Z" fill="#6D6489"/>
</svg>
