<svg width="24" height="24" viewBox="0 0 24 24" fill="none" xmlns="http://www.w3.org/2000/svg">
  <path d="M12 0C18.6271 0 24 5.37288 24 12C24 18.6271 18.6269 24 12 24C5.37312 24 0 18.6286 0 12C0 5.37144 5.37216 0 12 0Z" fill="url(#paint0_linear)"/>
  <path d="M12.0224 3.5625L11.9092 3.94706V15.1051L12.0224 15.218L17.2017 12.1565L12.0224 3.5625Z" fill="#FEB4FF"/>
  <path d="M12.0232 3.5625L6.84375 12.1565L12.0232 15.218V9.80223V3.5625Z" fill="white"/>
  <path d="M12.0223 16.197L11.9585 16.2749V20.2495L12.0223 20.4358L17.2048 13.1371L12.0223 16.197Z" fill="#FFC7E4"/>
  <path d="M12.0232 20.4358V16.197L6.84375 13.1371L12.0232 20.4358Z" fill="white"/>
  <path d="M12.0225 15.224L17.2018 12.1624L12.0225 9.80817V15.224Z" fill="#DD57EC"/>
  <path d="M6.84375 12.1624L12.0232 15.224V9.80817L6.84375 12.1624Z" fill="#F9C5FF"/>
  <defs>
  <linearGradient id="paint0_linear" x1="0.0395175" y1="2.73886" x2="29.4275" y2="16.9686" gradientUnits="userSpaceOnUse">
  <stop offset="0.053951" stop-color="#6D5CFF"/>
  <stop offset="0.559189" stop-color="#E86EFF"/>
  <stop offset="0.923794" stop-color="#FFD66E"/>
  </linearGradient>
  </defs>
</svg>
